<svg width="60" height="105.758" viewBox="0 0 60 105.758">
  <g id="Group_1" data-name="Group 1" transform="translate(-234 -731.069)">
    <g id="Path_1" data-name="Path 1" transform="translate(242 739.069)" fill="none">
      <path d="M22,0C34.15,0,44,10.771,44,24.059V65.7c0,13.287-9.85,24.059-22,24.059S0,78.986,0,65.7V24.059C0,10.771,9.85,0,22,0Z" stroke="none"/>
      <path d="M 22 -7.62939453125e-06 C 9.849739074707031 -7.62939453125e-06 0 10.77147674560547 0 24.05877685546875 L 0 65.698974609375 C 0 78.98627471923828 9.849739074707031 89.75775909423828 22 89.75775909423828 C 34.15026092529297 89.75775909423828 44 78.98627471923828 44 65.698974609375 L 44 24.05877685546875 C 44 10.77147674560547 34.15026092529297 -7.62939453125e-06 22 -7.62939453125e-06 M 22 -8.000007629394531 C 38.54206085205078 -8.000007629394531 52 6.381492614746094 52 24.05877685546875 L 52 65.698974609375 C 52 83.37625885009766 38.54206085205078 97.75775146484375 22 97.75775146484375 C 5.457939147949219 97.75775146484375 -8 83.37625885009766 -8 65.698974609375 L -8 24.05877685546875 C -8 6.381492614746094 5.457939147949219 -8.000007629394531 22 -8.000007629394531 Z" stroke="none" fill="#fff"/>
    </g>
    <g id="Ellipse_1" data-name="Ellipse 1" transform="translate(247 748)" fill="#fff" stroke="#707070" stroke-width="1">
      <circle cx="17" cy="17" r="17" stroke="none"/>
      <circle cx="17" cy="17" r="16.5" fill="none"/>
    </g>
  </g>
</svg>
